<?xml version="1.0" encoding="utf-8"?>
<!-- Generator: Adobe Illustrator 24.0.2, SVG Export Plug-In . SVG Version: 6.00 Build 0)  -->
<svg version="1.1" id="Layer_1" xmlns="http://www.w3.org/2000/svg" xmlns:xlink="http://www.w3.org/1999/xlink" x="0px" y="0px"
	 viewBox="0 0 957.8 433.6" style="enable-background:new 0 0 957.8 433.6;" xml:space="preserve">
<style type="text/css">
	.st0{enable-background:new    ;}
	.st1{fill:#565759;}
	.st2{fill:#D31B65;}
</style>
<g>
	<g>
		<g>
			<g class="st0">
				<path class="st1" d="M90.4,348.9l-15.5,37.9l-16.1-37.9v36.8H50v-55h13.9l12.9,28.8l12.4-28.8h13.7v55H90.4V348.9z"/>
				<path class="st1" d="M152.8,372.6l-4.5,13.1h-8.6l19-55h14l19.4,55h-12.5l-4.8-13.1H152.8z M172.2,364.6l-8.4-23.5l-8,23.5
					H172.2z"/>
				<path class="st1" d="M253.1,330.7c7.1,0,12.1,2.4,15,7.2c3,4.8,4.4,11.5,4.4,20.2c0,6.2-0.7,11.3-2,15.4
					c-1.3,4.1-3.4,7.1-6.3,9.2c-2.9,2-6.7,3.1-11.4,3.1h-24.1v-55H253.1z M262.4,358.1c0-4.3-0.4-8-1-10.9s-1.9-5.3-3.8-7
					c-1.9-1.7-4.7-2.6-8.3-2.6h-8v41.3h9c4.7,0,8-1.7,9.6-5.2C261.5,370.2,262.4,365.1,262.4,358.1z"/>
				<path class="st1" d="M311.7,330.7h37.4v6.9h-24.9v16.1H345v6.8h-20.8v18.4h25.3v6.9h-37.8V330.7z"/>
				<path class="st1" d="M473.2,330.7c7.1,0,12.1,2.4,15,7.2c3,4.8,4.4,11.5,4.4,20.2c0,6.2-0.7,11.3-2,15.4
					c-1.3,4.1-3.4,7.1-6.3,9.2c-2.9,2-6.7,3.1-11.4,3.1h-24.1v-55H473.2z M482.5,358.1c0-4.3-0.4-8-1-10.9s-1.9-5.3-3.8-7
					c-1.9-1.7-4.7-2.6-8.3-2.6h-8v41.3h9c4.7,0,8-1.7,9.6-5.2C481.6,370.2,482.5,365.1,482.5,358.1z"/>
				<path class="st1" d="M544.3,330.7v55h-12.5v-55H544.3z"/>
				<path class="st1" d="M628.8,361.5v19.8c0,0.3-0.8,0.8-2.4,1.6c-1.6,0.8-4,1.6-7.3,2.2c-3.2,0.7-7.2,1-11.8,1
					c-6.1-0.1-10.9-1.3-14.4-3.4s-6-5.3-7.5-9.5c-1.5-4.2-2.2-9.8-2.2-16.7c0.2-5.6,1-10.3,2.5-14.1c1.5-3.8,4-6.7,7.3-8.7
					c3.3-2,7.7-3.1,13.2-3.2c5.2,0,9.7,0.3,13.5,0.9c3.8,0.6,5.8,1.1,5.9,1.4l2.1,8.8c0-0.1-0.6-0.4-1.9-1.2
					c-1.4-0.8-3.2-1.5-5.4-2.1c-2.2-0.6-5-0.9-8.2-0.9c-1.5,0-2.7,0-3.5,0.1c-7.9,0.5-11.8,6.8-11.8,18.8c0,4.2,0.2,7.8,0.5,10.9
					c0.4,3.1,1.2,5.8,2.6,8c1.4,2.2,3.4,3.5,6.1,3.8c3.3,0,5.8-0.3,7.4-0.9c1.7-0.6,2.7-1.1,3.1-1.5v-15.4H628.8z"/>
				<path class="st1" d="M681.5,330.7v55H669v-55H681.5z"/>
				<path class="st1" d="M733.8,337.6h-15.1v-6.9h42.7v6.9h-15.1v48.2h-12.5V337.6z"/>
				<path class="st1" d="M808.5,372.6l-4.5,13.1h-8.6l19-55h14l19.4,55h-12.5l-4.8-13.1H808.5z M827.9,364.6l-8.4-23.5l-8,23.5
					H827.9z"/>
				<path class="st1" d="M897,378.9h26.7v6.9h-39.2v-55H897V378.9z"/>
			</g>
			<g class="st0">
				<path class="st1" d="M51.2,227.4h13.1v20.6c3.1-1.6,7.1-2.3,12-2.3c3.3,0,6.2,0.5,8.8,1.5c2.6,1,4.7,3.2,6.5,6.5
					c1.8,3.3,2.6,8.1,2.6,14.3c0,6.7-0.9,11.9-2.8,15.5c-1.9,3.6-4.2,6.1-7.1,7.3c-2.8,1.2-6,1.9-9.5,1.9c-3.1,0-5.5-0.4-7.2-1.2
					c-1.7-0.8-2.8-1.4-3.3-1.9v2.8H51.2V227.4z M64.3,282.5c0,0.3,0.7,0.9,2.2,2c1.5,1,3.3,1.6,5.3,1.8c4.4,0,7.5-1.5,9.3-4.5
					c1.8-3,2.7-7.6,2.7-13.9c0-5.2-0.8-9.2-2.3-12c-1.6-2.8-4.6-4.2-9.2-4.2c-2.5,0.2-4.5,0.6-5.9,1.3c-1.4,0.7-2.1,1.1-2.1,1.4
					V282.5z"/>
				<path class="st1" d="M117.6,245.7c5.4,0,9.7,0.9,12.9,2.6c3.2,1.7,5.6,4.3,7,7.8c1.4,3.4,2.1,7.8,2.1,13
					c0,8.2-1.7,14.3-5.2,18.1c-3.5,3.8-9.2,5.7-17.1,5.7c-7.5-0.1-13-2-16.6-5.8c-3.6-3.8-5.3-9.7-5.3-17.9
					C95.5,253.6,102.9,245.7,117.6,245.7z M108.4,269.1c0.2,4,0.4,7.1,0.7,9.1s1.1,4,2.5,5.6c1.3,1.7,3.4,2.5,6.2,2.5
					c3.9,0,6.4-1.5,7.4-4.4c1-3,1.5-7.2,1.5-12.6c0-5.3-0.5-9.5-1.5-12.6s-3.5-4.6-7.4-4.6c-4,0.1-6.6,1.7-7.7,4.6
					C108.9,259.7,108.4,263.9,108.4,269.1z"/>
				<path class="st1" d="M169.8,292.4v-4.9c-0.4,0.8-1.6,1.9-3.7,3.1s-5.6,1.9-10.6,1.9c-4.2-0.2-7.8-1.2-10.6-3.3
					c-2.8-2-4.3-5.2-4.3-9.6c0-4.7,1.7-8.2,5-10.5c3.3-2.3,8.4-3.8,15.1-4.3c3.1-0.2,5.5-1,7.1-2.4s2.5-2.8,2.5-4.5
					c0-1.7-0.8-3.1-2.3-4.3c-1.5-1.2-3.6-1.8-6.2-1.8c-5.4,0-9.6,1-12.5,3c-3,2-4.9,3.6-5.9,5l1.9-9.2c0-0.2,0.7-0.6,2.1-1.5
					c1.4-0.8,3.4-1.6,5.9-2.3c2.5-0.7,5.6-1.1,9.1-1.1c7.2,0,12.4,1.2,15.6,3.7c3.2,2.4,4.8,5.6,4.8,9.6v33.3H169.8z M163.4,285.2
					c4.3-1.2,6.4-3,6.4-5.6V269c0,0.1-0.2,0.4-0.5,1c-0.3,0.6-1,1.2-2,1.7c-1,0.6-2.6,1-4.8,1.2c-3.6,0.5-6.4,1.3-8.3,2.4
					c-1.9,1.1-2.9,3-2.9,5.8c0.3,3.2,2.8,4.7,7.6,4.7C160.4,285.8,161.9,285.6,163.4,285.2z"/>
				<path class="st1" d="M186.6,292.4V246h13.1v5.7c0,0,0.3-0.4,0.8-1c0.5-0.6,1.2-1.2,2.2-1.9c1-0.7,2.3-1.3,4-1.9
					c1.8-0.7,4.1-1.1,6.8-1.1c2.1,0,3.5,0.1,4,0.3l1.1,6.7c-1.6-0.4-3.1-0.6-4.5-0.6c-3,0-5.5,0.6-7.5,1.7c-2.2,1.1-4,2.6-5.2,4.6
					c-1.2,1.9-1.8,3.7-1.8,5.3v28.6H186.6z"/>
				<path class="st1" d="M261.8,227.4v65h-13v-2.8c-0.5,0.5-1.6,1.1-3.3,1.9c-1.7,0.8-4.1,1.2-7.2,1.2c-3.6,0-6.8-0.7-9.6-1.9
					c-2.8-1.2-5.2-3.6-7.1-7.2c-1.9-3.6-2.8-8.8-2.8-15.6c0.1-9.1,1.8-15,5.2-17.9c3.3-2.9,7.6-4.4,12.8-4.4c4.9,0,8.9,0.8,12,2.3
					v-20.6H261.8z M248.9,282.5v-28.1c0-0.3-0.7-0.7-2.1-1.4c-1.4-0.7-3.4-1.1-5.9-1.3c-4.6,0-7.7,1.4-9.2,4.2
					c-1.6,2.8-2.3,6.8-2.3,12c0,4.2,0.4,7.6,1.1,10.3c0.7,2.7,2,4.7,3.7,6.1c1.7,1.4,4.1,2.1,7,2.1c2.1-0.2,3.9-0.8,5.4-1.8
					C248.1,283.5,248.9,282.8,248.9,282.5z"/>
				<path class="st1" d="M315.8,302.7c7.2,0,10.8-2.1,10.8-6.4v-6c-3.3,1.7-7.4,2.5-12.1,2.5c-3.5-0.1-6.5-0.7-8.9-1.7
					c-2.5-1-4.6-3.3-6.3-6.7c-1.7-3.5-2.6-8.6-2.6-15.4c0.2-7,1.3-12.2,3.3-15.6c2-3.4,4.3-5.5,6.9-6.4c2.6-0.9,5.5-1.3,8.8-1.3
					c1.8,0.1,3.5,0.4,5.1,0.9s2.9,1.1,4.1,1.7c1.2,0.6,1.7,0.9,1.7,1V246h13v48.2c0,9.4-6.9,14.2-20.8,14.5c-5,0-9.1-0.4-12.3-1.3
					c-3.2-0.8-5.1-1.5-5.5-1.9l-1-7.2c1,0.7,3,1.6,5.8,2.6C308.5,301.9,311.9,302.6,315.8,302.7z M326.5,255.9
					c0-0.2-0.8-0.9-2.3-1.8c-1.6-1-3.3-1.6-5.3-2c-2.9,0-5.3,0.6-7,1.8c-1.7,1.2-3,3.1-3.7,5.5c-0.7,2.5-1.2,5.7-1.3,9.8
					c0,5.5,0.8,9.8,2.4,12.9c1.6,3.1,4.7,4.6,9.2,4.6c2.4-0.2,4.2-0.5,5.5-1.2c1.3-0.6,2.2-1.1,2.6-1.5V255.9z"/>
				<path class="st1" d="M371.8,292.4v-4.9c-0.4,0.8-1.6,1.9-3.7,3.1s-5.6,1.9-10.6,1.9c-4.2-0.2-7.8-1.2-10.6-3.3
					c-2.8-2-4.3-5.2-4.3-9.6c0-4.7,1.7-8.2,5-10.5c3.3-2.3,8.4-3.8,15.1-4.3c3.1-0.2,5.5-1,7.1-2.4s2.5-2.8,2.5-4.5
					c0-1.7-0.8-3.1-2.3-4.3c-1.5-1.2-3.6-1.8-6.2-1.8c-5.4,0-9.6,1-12.5,3c-3,2-4.9,3.6-5.9,5l1.9-9.2c0-0.2,0.7-0.6,2.1-1.5
					c1.4-0.8,3.4-1.6,5.9-2.3c2.5-0.7,5.6-1.1,9.1-1.1c7.2,0,12.4,1.2,15.6,3.7c3.2,2.4,4.8,5.6,4.8,9.6v33.3H371.8z M365.4,285.2
					c4.3-1.2,6.4-3,6.4-5.6V269c0,0.1-0.2,0.4-0.5,1c-0.3,0.6-1,1.2-2,1.7c-1,0.6-2.6,1-4.8,1.2c-3.6,0.5-6.4,1.3-8.3,2.4
					c-1.9,1.1-2.9,3-2.9,5.8c0.3,3.2,2.8,4.7,7.6,4.7C362.4,285.8,363.9,285.6,365.4,285.2z"/>
				<path class="st1" d="M388.7,292.4V246h13.1v3.8c2.7-2.7,6.8-4,12.4-4c3.9,0,6.7,0.7,8.3,2.1c1.6,1.4,2.5,2.6,2.8,3.6
					c0,0,0.5-0.6,1.4-1.5c0.9-1,2.2-1.9,4-2.7c1.7-0.8,4-1.3,6.7-1.4c5,0,8.7,1.1,11.2,3.4c2.5,2.3,3.7,5.2,3.7,8.8v34.3h-10v-33.2
					c0-4.2-2.5-6.3-7.5-6.3c-2.6,0.2-4.5,1.1-5.6,2.9c-1.1,1.7-1.8,3.1-2,4.3v32.3h-10v-33.2c0-1.8-0.6-3.3-1.8-4.5
					c-1.2-1.2-3.1-1.8-5.7-1.8c-2.8,0.3-4.7,1.3-5.8,3.1c-1.1,1.8-1.7,3.3-1.9,4.4v31.9H388.7z"/>
				<path class="st1" d="M468.3,271.5c0.2,2.5,1,5.5,2.5,9.3c1.5,3.7,4.2,5.7,8.1,5.9c4.8,0,8.5-0.6,11.2-1.8c2.7-1.2,4.5-2.2,5.3-3
					l-2,8.1c0,0.5-1.4,1.1-4,1.9c-2.7,0.8-6.1,1.2-10.3,1.2c-1.7,0-2.9,0-3.9-0.1c-6.8-0.5-11.7-2.4-14.9-5.8s-4.7-8.8-4.8-16.3
					c0-8.6,1.8-14.9,5.4-18.9c3.6-4,8.8-6,15.7-6.1c8.3,0,13.9,2.2,16.8,6.5c2.5,3.6,3.8,8.5,3.8,14.6c0,1.2,0,2.1-0.1,2.9
					c-0.1,0.8-0.1,1.4-0.2,1.7H468.3z M477.7,251.6c-6.3,0.2-9.5,4.8-9.5,13.8h20.2C488.5,256.2,484.9,251.6,477.7,251.6z"/>
				<path class="st1" d="M542.1,271.5c0.2,2.5,1,5.5,2.5,9.3c1.5,3.7,4.2,5.7,8.1,5.9c4.8,0,8.5-0.6,11.2-1.8c2.7-1.2,4.5-2.2,5.3-3
					l-2,8.1c0,0.5-1.4,1.1-4,1.9c-2.7,0.8-6.1,1.2-10.3,1.2c-1.7,0-2.9,0-3.9-0.1c-6.8-0.5-11.7-2.4-14.9-5.8
					c-3.1-3.4-4.7-8.8-4.8-16.3c0-8.6,1.8-14.9,5.4-18.9c3.6-4,8.8-6,15.7-6.1c8.3,0,13.9,2.2,16.8,6.5c2.5,3.6,3.8,8.5,3.8,14.6
					c0,1.2,0,2.1-0.1,2.9c-0.1,0.8-0.1,1.4-0.2,1.7H542.1z M551.6,251.6c-6.3,0.2-9.5,4.8-9.5,13.8h20.2
					C562.4,256.2,558.8,251.6,551.6,251.6z"/>
				<path class="st1" d="M572.7,246h14.9l8.2,13.1l8.9-13.1h9.1l-13.6,19.7l16.6,26.7h-15l-9.6-15.5l-10.7,15.5h-9.6l15.8-22.4
					L572.7,246z"/>
				<path class="st1" d="M616.9,311.1V246h13v3.3c0,0,0.6-0.3,1.7-1c1.2-0.6,2.5-1.2,4.1-1.7c1.6-0.5,3.3-0.8,5.1-0.9
					c3.3,0,6.3,0.4,8.9,1.2c2.6,0.8,5,3,7.1,6.4s3.1,8.6,3.1,15.6c-0.1,6.7-1.1,11.8-2.8,15.2c-1.7,3.5-3.8,5.7-6.2,6.8
					s-5.4,1.7-8.9,1.8c-4.8,0-8.8-0.8-12.1-2.5v20.8H616.9z M629.8,255.9v28.3c0.4,0.4,1.3,0.9,2.6,1.5c1.3,0.6,3.2,1,5.5,1.2
					c4.5,0,7.5-1.5,9-4.6c1.5-3.1,2.4-7.4,2.6-13c0-4.2-0.4-7.5-1.1-10c-0.7-2.5-1.9-4.3-3.7-5.4c-1.7-1.1-4.2-1.7-7.3-1.7
					c-2,0.2-3.8,0.8-5.4,1.9C630.6,255,629.8,255.6,629.8,255.9z"/>
				<path class="st1" d="M674,271.5c0.2,2.5,1,5.5,2.5,9.3c1.5,3.7,4.2,5.7,8.1,5.9c4.8,0,8.5-0.6,11.2-1.8c2.7-1.2,4.5-2.2,5.3-3
					l-2,8.1c0,0.5-1.4,1.1-4,1.9c-2.7,0.8-6.1,1.2-10.3,1.2c-1.7,0-2.9,0-3.9-0.1c-6.8-0.5-11.7-2.4-14.9-5.8
					c-3.1-3.4-4.7-8.8-4.8-16.3c0-8.6,1.8-14.9,5.4-18.9c3.6-4,8.8-6,15.7-6.1c8.3,0,13.9,2.2,16.8,6.5c2.5,3.6,3.8,8.5,3.8,14.6
					c0,1.2,0,2.1-0.1,2.9c-0.1,0.8-0.1,1.4-0.2,1.7H674z M683.5,251.6c-6.3,0.2-9.5,4.8-9.5,13.8h20.2
					C694.2,256.2,690.7,251.6,683.5,251.6z"/>
				<path class="st1" d="M705,292.4V246h13.1v5.7c0,0,0.3-0.4,0.8-1c0.5-0.6,1.2-1.2,2.2-1.9c1-0.7,2.3-1.3,4-1.9
					c1.8-0.7,4.1-1.1,6.8-1.1c2.1,0,3.5,0.1,4,0.3l1.1,6.7c-1.6-0.4-3.1-0.6-4.5-0.6c-3,0-5.5,0.6-7.5,1.7c-2.2,1.1-4,2.6-5.2,4.6
					c-1.2,1.9-1.8,3.7-1.8,5.3v28.6H705z"/>
				<path class="st1" d="M745.4,227.3c2.3,0,4.1,0.7,5.4,2.2c1.3,1.5,2,3.2,2,5.2c0,2.1-0.7,3.8-2,5.3s-3.2,2.2-5.5,2.2
					c-2.3,0-4.1-0.7-5.4-2.2c-1.3-1.5-2-3.2-2-5.2c0-2,0.7-3.7,2-5.3C741.2,228.1,743,227.3,745.4,227.3z M738.8,292.4V246h13v46.4
					H738.8z"/>
				<path class="st1" d="M767.3,271.5c0.2,2.5,1,5.5,2.5,9.3c1.5,3.7,4.2,5.7,8.1,5.9c4.8,0,8.5-0.6,11.2-1.8c2.7-1.2,4.5-2.2,5.3-3
					l-2,8.1c0,0.5-1.4,1.1-4,1.9c-2.7,0.8-6.1,1.2-10.3,1.2c-1.7,0-2.9,0-3.9-0.1c-6.8-0.5-11.7-2.4-14.9-5.8
					c-3.1-3.4-4.7-8.8-4.8-16.3c0-8.6,1.8-14.9,5.4-18.9c3.6-4,8.8-6,15.7-6.1c8.3,0,13.9,2.2,16.8,6.5c2.5,3.6,3.8,8.5,3.8,14.6
					c0,1.2,0,2.1-0.1,2.9c-0.1,0.8-0.1,1.4-0.2,1.7H767.3z M776.8,251.6c-6.3,0.2-9.5,4.8-9.5,13.8h20.2
					C787.5,256.2,783.9,251.6,776.8,251.6z"/>
				<path class="st1" d="M838.5,256.7v35.7h-9.8v-34c0-3.9-3-5.9-8.9-5.9c-2.9,0.3-5,1.2-6.2,2.7c-1.3,1.5-2,2.6-2.3,3.6v33.6h-13.1
					V246h13.1v3.8c0.2-0.1,0.8-0.5,1.9-1.2c1.1-0.7,2.6-1.3,4.5-1.9c1.9-0.6,4.2-0.9,6.8-0.9c4.8,0,8.4,1.1,10.7,3.3
					C837.4,251.3,838.5,253.8,838.5,256.7z"/>
				<path class="st1" d="M878.5,290.5c0,0.2-1.3,0.5-3.9,1.1s-6,0.9-10,1c-5.7,0-10.2-0.8-13.5-2.4c-3.3-1.6-5.7-4.2-7.2-7.8
					c-1.5-3.6-2.2-8.5-2.2-14.8c0.2-5,1-9.1,2.4-12.3c1.4-3.2,3.7-5.6,6.8-7.1c3.1-1.6,7.2-2.4,12.4-2.4c3.3,0.1,6.2,0.4,8.9,0.9
					c2.6,0.5,4.5,0.9,5.6,1.2l1.4,6.7c-0.8-0.4-2.4-1-4.6-1.6c-2.2-0.6-5.1-1-8.5-1.1c-4.5,0-7.4,1.5-8.9,4.4
					c-1.5,2.9-2.2,6.7-2.2,11.2c0,5.4,0.6,9.9,1.8,13.3c1.2,3.4,3.7,5.3,7.5,5.5c3,0,5.6-0.3,7.8-0.8c2.2-0.5,3.9-1.1,5.3-1.7
					s2-1,2-1.1L878.5,290.5z"/>
				<path class="st1" d="M893.3,271.5c0.2,2.5,1,5.5,2.5,9.3c1.5,3.7,4.2,5.7,8.1,5.9c4.8,0,8.5-0.6,11.2-1.8c2.7-1.2,4.5-2.2,5.3-3
					l-2,8.1c0,0.5-1.4,1.1-4,1.9c-2.7,0.8-6.1,1.2-10.3,1.2c-1.7,0-2.9,0-3.9-0.1c-6.8-0.5-11.7-2.4-14.9-5.8
					c-3.1-3.4-4.7-8.8-4.8-16.3c0-8.6,1.8-14.9,5.4-18.9c3.6-4,8.8-6,15.7-6.1c8.3,0,13.9,2.2,16.8,6.5c2.5,3.6,3.8,8.5,3.8,14.6
					c0,1.2,0,2.1-0.1,2.9c-0.1,0.8-0.1,1.4-0.2,1.7H893.3z M902.8,251.6c-6.3,0.2-9.5,4.8-9.5,13.8h20.2
					C913.5,256.2,909.9,251.6,902.8,251.6z"/>
			</g>
		</g>
		<g class="st0">
			<path class="st2" d="M111.8,57c18,0,30.7,6.1,38.2,18.4c7.5,12.3,11.3,29.3,11.3,51.3c0,15.8-1.7,28.8-5,39.1
				c-3.3,10.3-8.7,18.1-16.1,23.3c-7.4,5.2-17.1,7.8-29,7.8H49.9V57H111.8z M135.4,126.7c-0.1-11-1-20.3-2.6-27.8
				s-4.8-13.4-9.7-17.8c-4.8-4.4-11.8-6.6-21-6.6H81.7v105h22.9c12.1,0,20.2-4.4,24.5-13.2S135.4,144.2,135.4,126.7z"/>
			<path class="st2" d="M240.5,57c27.2,0,40.8,11.1,40.8,33.3c0,13.2-3.7,22-11.2,26.3c-7.4,4.3-13.6,6.4-18.6,6.4
				c23.2,2.2,34.8,13.5,34.8,33.6c-0.2,15.6-4.5,26.2-12.6,31.8c-8.2,5.6-19,8.4-32.3,8.4h-65.1V57H240.5z M257.5,91.8
				c-1-11.6-7.9-17.4-20.7-17.4H208v40.8h27.9C250.3,115.2,257.5,107.4,257.5,91.8z M238.3,179.4c14.8,0,22.2-8.1,22.2-24.2
				c0-7.2-2.2-12.8-6.6-16.7c-4.4-3.9-9.9-5.9-16.5-5.9H208v46.8H238.3z"/>
			<path class="st2" d="M412.1,135.3v50.4c0,0.6-2,2-6.1,4c-4.1,2.1-10.2,3.9-18.5,5.7c-8.2,1.7-18.2,2.6-30,2.6
				c-15.5-0.3-27.7-3.2-36.7-8.6c-9-5.4-15.3-13.4-19-24.2c-3.7-10.8-5.6-24.9-5.6-42.5c0.4-14.2,2.5-26.1,6.4-35.7
				c3.9-9.6,10.1-17.1,18.6-22.2c8.5-5.2,19.7-7.9,33.5-8.1c13.1,0,24.6,0.8,34.4,2.4c9.8,1.6,14.8,2.8,15.1,3.6l5.4,22.5
				c0-0.1-1.6-1.1-4.8-2.9c-3.5-2-8.1-3.7-13.8-5.2c-5.7-1.5-12.7-2.3-20.9-2.3c-3.8,0-6.8,0.1-9,0.3c-20,1.3-30,17.2-30,47.7
				c0,10.5,0.5,19.8,1.4,27.6c0.9,7.9,3.1,14.7,6.6,20.4c3.5,5.7,8.6,8.9,15.5,9.6c8.3,0,14.6-0.8,18.8-2.3c4.2-1.5,6.8-2.8,7.8-3.7
				v-39H412.1z"/>
			<path class="st2" d="M453.7,163.5l-11.4,33.3h-21.9L468.7,57h35.7l49.2,139.8h-31.8l-12.3-33.3H453.7z M503,143.1l-21.3-59.7
				l-20.4,59.7H503z"/>
			<path class="st2" d="M664.9,103.2l-39.3,96.3l-40.8-96.3v93.6h-22.5V57h35.4l32.7,73.2L661.9,57h34.8v139.8h-31.8V103.2z"/>
			<path class="st2" d="M715,57h95.1v17.4h-63.4v40.8h52.8v17.4h-52.8v46.8H811v17.4h-96V57z"/>
			<path class="st2" d="M849.5,91.2c0,5.3,4.4,9.3,13.2,12c8.8,2.7,17.7,5.2,26.7,7.5c9,2.3,16.8,6.3,23.5,11.9
				c6.7,5.6,10.2,14.3,10.4,25.9c0,11.5-1.9,20.8-5.8,27.8c-3.9,7-9.3,12.2-16.2,15.4c-7,3.2-15.4,5.2-25.4,5.9
				c-2.4,0.2-5.8,0.3-10.2,0.3c-7.3,0-14.1-0.5-20.6-1.6c-6.5-1.1-11.8-2.3-16-3.6c-4.2-1.3-6.3-2.1-6.3-2.3l-5.4-21.3
				c0,0,2.2,0.9,6.5,2.8c4.3,1.9,9.5,3.6,15.5,5.1c6,1.6,12.7,2.4,20,2.6c11.8,0,19.8-1.9,23.8-5.7c4.1-3.8,6.1-9.6,6.1-17.4
				c0-9.2-2.8-15.3-8.3-18.2c-5.5-2.9-14.5-5.7-26.9-8.3c-12.4-2.7-21.8-6.5-28-11.6c-6.3-5.1-9.4-14-9.4-26.7
				c0.3-8.1,2.6-14.8,6.8-20.1s9.8-9.2,16.7-11.8c6.9-2.6,14.7-4,23.3-4.4c14.3,0,25.5,0.8,33.6,2.5c8.1,1.6,13.5,3,16.2,4.1
				l5.7,22.5c-7.8-3.5-14.8-6-20.9-7.4c-6.1-1.4-13.4-2.2-21.8-2.2c-8.2,0-14.6,1-19.2,2.9C852.6,79.9,850,84.3,849.5,91.2z"/>
		</g>
	</g>
</g>
</svg>
