<?xml version="1.0" encoding="utf-8"?>
<!-- Generator: Adobe Illustrator 24.0.2, SVG Export Plug-In . SVG Version: 6.00 Build 0)  -->
<svg version="1.1" id="Layer_1" xmlns="http://www.w3.org/2000/svg" xmlns:xlink="http://www.w3.org/1999/xlink" x="0px" y="0px"
	 viewBox="0 0 399.46 127.59" style="enable-background:new 0 0 399.46 127.59;" xml:space="preserve">
<style type="text/css">
	.st0{fill:#FFC615;}
	.st1{fill:#4B4D4E;}
</style>
<path class="st0" d="M374.42,125.18H26.11c-12.83,0-23.33-10.5-23.33-23.33v-78c0-12.83,10.5-23.33,23.33-23.33h348.31
	c12.83,0,23.33,10.5,23.33,23.33v78C397.75,114.68,387.25,125.18,374.42,125.18z"/>
<g>
	<path class="st1" d="M30.41,74.69V48.92c0-0.09,0.04-0.17,0.13-0.23c0.08-0.06,0.22-0.11,0.4-0.14c0.18-0.03,0.34-0.04,0.47-0.06
		c0.14-0.01,0.33-0.02,0.58-0.03c0.25-0.01,0.42-0.01,0.51-0.01h15.71c1.29,0,2.51,0.2,3.66,0.61c1.15,0.41,2.17,1,3.06,1.77
		c0.89,0.77,1.59,1.77,2.11,3c0.52,1.23,0.77,2.61,0.77,4.14c0,1.14-0.13,2.17-0.4,3.11c-0.26,0.94-0.61,1.74-1.04,2.41
		c-0.43,0.66-0.96,1.26-1.59,1.79c-0.63,0.53-1.26,0.95-1.92,1.28c-0.65,0.32-1.37,0.6-2.16,0.82c-0.79,0.23-1.51,0.39-2.18,0.49
		c-0.66,0.1-1.36,0.18-2.1,0.23h-3.71c-0.1,2.03-0.15,4.3-0.15,6.81v2.17c-0.04,0.46-0.26,0.7-0.66,0.7H30.92
		C30.58,76.89,30.41,75.86,30.41,74.69z M41.33,61.14L41.95,62c0.53,0,1.04-0.04,1.52-0.12c0.48-0.08,0.96-0.21,1.42-0.41
		c0.46-0.19,0.86-0.44,1.2-0.74c0.34-0.3,0.61-0.69,0.81-1.16c0.21-0.47,0.31-1,0.31-1.6c0-0.45-0.06-0.85-0.18-1.21
		c-0.12-0.35-0.27-0.64-0.44-0.87c-0.17-0.23-0.41-0.42-0.72-0.59c-0.3-0.17-0.59-0.29-0.85-0.38c-0.26-0.08-0.6-0.15-1.01-0.19
		c-0.41-0.04-0.74-0.07-1.01-0.08c-0.26-0.01-0.6-0.01-1.02-0.01C41.55,54.85,41.33,57.02,41.33,61.14z"/>
	<path class="st1" d="M58.39,62.77v-2.13c0.13-1.81,0.52-3.45,1.18-4.94c0.66-1.49,1.49-2.74,2.51-3.76
		c1.01-1.02,2.18-1.88,3.51-2.58c1.33-0.7,2.72-1.22,4.17-1.54c1.45-0.32,2.95-0.48,4.5-0.48c0.85,0,1.74,0.07,2.66,0.21
		c0.92,0.14,1.9,0.37,2.93,0.68c1.03,0.31,2.02,0.76,2.97,1.36s1.73,1.31,2.35,2.12c1.28,1.56,2.2,3.2,2.78,4.9
		c0.57,1.71,0.86,3.61,0.86,5.7c0.04,4.36-0.92,7.87-2.86,10.52l-0.85,1.16c-0.75,1.03-1.82,1.89-3.21,2.58
		c-1.39,0.69-2.79,1.17-4.18,1.43c-1.39,0.26-2.8,0.4-4.22,0.4c-1.66,0-3.2-0.17-4.6-0.5c-1.41-0.34-2.62-0.79-3.64-1.35
		c-1.02-0.57-1.93-1.26-2.73-2.07c-0.8-0.81-1.45-1.67-1.96-2.57c-0.51-0.9-0.93-1.88-1.26-2.94c-0.33-1.06-0.56-2.09-0.7-3.1
		S58.39,63.83,58.39,62.77z M73.79,55.11c-0.53,0-1,0.12-1.42,0.37c-0.42,0.25-0.76,0.54-1.03,0.89c-0.26,0.35-0.49,0.82-0.69,1.4
		c-0.19,0.59-0.34,1.12-0.43,1.59c-0.09,0.47-0.16,1.06-0.21,1.78c-0.05,0.72-0.08,1.27-0.09,1.66c-0.01,0.39-0.01,0.9-0.01,1.52
		c0,0.59,0.02,1.16,0.07,1.69c0.04,0.54,0.14,1.1,0.29,1.7c0.15,0.6,0.34,1.12,0.58,1.57c0.24,0.44,0.57,0.82,0.99,1.12
		c0.42,0.3,0.9,0.47,1.44,0.49c0.57,0,1.07-0.09,1.51-0.28c0.44-0.19,0.81-0.43,1.1-0.72c0.3-0.29,0.55-0.68,0.75-1.17
		c0.21-0.49,0.36-0.96,0.47-1.41c0.11-0.45,0.19-1.01,0.25-1.68c0.06-0.67,0.09-1.25,0.11-1.73c0.01-0.48,0.02-1.09,0.02-1.83
		c0-0.54-0.02-1.04-0.05-1.51c-0.03-0.46-0.09-0.98-0.16-1.55c-0.08-0.57-0.21-1.07-0.39-1.5c-0.18-0.43-0.4-0.84-0.66-1.22
		c-0.26-0.38-0.6-0.67-1.02-0.88C74.81,55.21,74.33,55.11,73.79,55.11z"/>
	<path class="st1" d="M103.82,78.48c-1.52-0.06-2.89-0.2-4.1-0.4c-1.21-0.2-2.38-0.52-3.51-0.97c-1.13-0.44-2.08-1.01-2.84-1.68
		c-0.77-0.68-1.41-1.54-1.92-2.6c-0.51-1.06-0.82-2.28-0.94-3.68c0-0.24,0.13-0.39,0.39-0.43c0.08,0.03,0.21,0.04,0.39,0.04
		c1.07,0,2.7-0.03,4.88-0.08c2.18-0.05,3.8-0.08,4.88-0.08c0.27,0,0.48,0.09,0.64,0.26s0.28,0.39,0.38,0.64
		c0.1,0.25,0.21,0.5,0.35,0.75c0.14,0.25,0.37,0.46,0.7,0.64s0.75,0.26,1.27,0.26c0.63,0,1.19-0.18,1.67-0.53
		c0.48-0.35,0.73-0.83,0.73-1.44c0-0.4-0.21-0.77-0.62-1.1c-0.41-0.34-0.96-0.61-1.63-0.82c-0.68-0.21-1.32-0.39-1.93-0.54
		c-0.61-0.15-1.24-0.28-1.89-0.39c-0.65-0.11-1.02-0.18-1.12-0.2c-3.13-0.85-5.39-1.91-6.76-3.17c-1.37-1.26-2.06-2.99-2.06-5.19
		c0-1.55,0.28-2.94,0.85-4.17c0.57-1.23,1.31-2.24,2.22-3.02c0.92-0.78,2-1.43,3.25-1.95c1.25-0.52,2.52-0.89,3.79-1.1
		c1.28-0.21,2.6-0.32,3.97-0.32c3.62,0,6.51,0.67,8.67,2.01c0.79,0.79,1.36,1.38,1.73,1.79s0.72,0.88,1.06,1.42
		c0.34,0.54,0.58,1.07,0.72,1.6c0.14,0.52,0.23,1.16,0.28,1.93l-0.7,0.7c-2.64,0.1-5.61,0.15-8.9,0.15c-0.41,0-0.74-0.04-1-0.14
		c-0.25-0.09-0.42-0.21-0.5-0.35c-0.08-0.14-0.17-0.29-0.25-0.44c-0.08-0.15-0.16-0.3-0.23-0.44c-0.07-0.14-0.22-0.26-0.44-0.35
		c-0.23-0.09-0.53-0.14-0.9-0.14c-0.1,0-0.27,0.02-0.49,0.06c-0.23,0.04-0.49,0.1-0.79,0.18c-0.3,0.08-0.56,0.21-0.78,0.39
		c-0.22,0.17-0.33,0.38-0.33,0.61c0,0.28,0.15,0.54,0.44,0.77s0.6,0.4,0.92,0.5c0.32,0.1,0.72,0.22,1.2,0.34
		c0.48,0.12,0.77,0.2,0.89,0.24c2.81,0.71,4.49,1.15,5.03,1.32c2.82,0.89,4.82,2.06,6,3.5c1.08,1.34,1.63,3.02,1.63,5.05
		c0,1.23-0.16,2.34-0.47,3.35c-0.32,1.01-0.73,1.86-1.25,2.55c-0.52,0.7-1.16,1.32-1.93,1.86c-0.77,0.54-1.56,0.97-2.35,1.3
		c-0.79,0.32-1.69,0.59-2.7,0.81c-1.01,0.22-1.93,0.38-2.78,0.47C105.73,78.35,104.81,78.43,103.82,78.48z"/>
	<path class="st1" d="M118.14,54.14c0-0.23,0.01-0.58,0.04-1.04c0.03-0.46,0.04-0.77,0.04-0.94c0-0.06-0.01-0.3-0.04-0.7
		c-0.03-0.4-0.04-0.75-0.04-1.04c0-1.37,0.13-2.05,0.39-2.05c0.1,0,0.19,0.01,0.27,0.04c2.7,0,6.69-0.03,11.99-0.1
		c5.29-0.06,9.26-0.1,11.89-0.1c0.66,0,1.07,0.06,1.25,0.17c0.17,0.12,0.26,0.34,0.26,0.68v0.54c0,0.67,0.01,1.66,0.02,2.97
		c0.01,1.31,0.02,2.31,0.02,2.99c0,0.67-0.18,1.01-0.54,1.01c-0.72,0-1.8-0.01-3.23-0.04c-1.43-0.03-2.51-0.04-3.23-0.04v20.74
		c-0.09,0.39-0.31,0.59-0.66,0.62c-0.45,0-1.11-0.01-1.97-0.02c-0.86-0.01-1.52-0.02-1.97-0.02c-0.03,0-0.05,0.01-0.08,0.04
		c-0.57,0-1.36-0.01-2.39-0.02c-1.03-0.01-1.79-0.02-2.29-0.02h-1.16c-0.26,0.03-0.63,0.04-1.12,0.04l-0.77-0.93
		c0-1.96,0.06-4.88,0.19-8.74c0.13-3.87,0.19-6.78,0.19-8.74c0-0.09,0-0.24-0.01-0.44c-0.01-0.21-0.01-0.37-0.01-0.5
		c0-0.13-0.01-0.29-0.03-0.48c-0.02-0.19-0.05-0.35-0.1-0.47c-0.05-0.12-0.1-0.24-0.16-0.37c-0.06-0.12-0.15-0.21-0.26-0.27
		c-0.11-0.06-0.24-0.09-0.4-0.09h-5.53C118.32,56.71,118.14,55.82,118.14,54.14z"/>
	<path class="st1" d="M140.85,77.32c0.8-2.95,1.68-5.95,2.65-9c0.97-3.04,2.17-6.68,3.61-10.92c1.44-4.24,2.42-7.17,2.95-8.79
		c0.15-0.26,0.26-0.41,0.31-0.46h3.25c0.76,0,1.88-0.01,3.37-0.04c1.48-0.03,2.61-0.04,3.37-0.04h3.25c0.19,0,0.35,0,0.48,0.01
		c0.13,0.01,0.28,0.02,0.46,0.05c0.18,0.03,0.33,0.06,0.44,0.12c0.11,0.05,0.2,0.13,0.28,0.23c0.08,0.1,0.12,0.23,0.12,0.37
		l8.92,28.27c0,0.26-0.09,0.44-0.28,0.53c-0.19,0.1-0.54,0.15-1.05,0.15h-1.78c-0.52,0-1.28,0.01-2.3,0.02
		c-1.02,0.01-1.79,0.02-2.3,0.02c-0.15,0-0.47,0.01-0.94,0.03c-0.47,0.02-0.87,0.03-1.19,0.02c-0.32-0.01-0.68-0.03-1.07-0.06
		c-0.39-0.03-0.71-0.1-0.95-0.21c-0.24-0.11-0.39-0.25-0.45-0.44v-1.28c-0.13-0.64-0.36-1.24-0.68-1.78
		c-0.32-0.54-0.66-0.81-1.03-0.81h-6.66l-1.01,4.1c-0.14,0.31-0.86,0.46-2.17,0.46h-1.55c-0.55,0-1.38,0.02-2.48,0.06
		c-1.1,0.04-1.92,0.06-2.48,0.06h-0.54c-0.21,0-0.53,0.01-0.98,0.02c-0.44,0.01-0.79,0.02-1.04,0.02
		C141.29,77.91,141.11,77.68,140.85,77.32z M154.28,65.57l0.54,0.91h1.28c1.03,0,1.98-0.06,2.83-0.18c0.86-0.12,1.29-0.32,1.29-0.59
		l-2.5-11.14c-0.23,0-0.55,0.44-0.94,1.32c-0.39,0.88-0.71,1.87-0.96,2.98L154.28,65.57z"/>
	<path class="st1" d="M175.44,51.47c0-2.1,0.22-3.28,0.66-3.52c0.13,0.03,0.31,0.04,0.54,0.04h0.62c0.4,0,1.06-0.01,1.97-0.04
		c0.92-0.03,1.61-0.04,2.09-0.04c1.83,0,3.31,0.07,4.44,0.22c1.13,0.15,1.76,0.42,1.91,0.82l-0.23,19.97h0.43
		c1.03-0.05,1.75-0.07,2.17-0.07c0.41,0.01,1.17,0.03,2.27,0.08c1.1,0.05,2.16,0.07,3.18,0.07c0.84,0,1.46,0.05,1.87,0.15
		c0.41,0.1,0.61,0.29,0.61,0.59v7.43c-0.17,0.46-3.04,0.7-8.63,0.7h-13.39c-0.31-0.45-0.46-1.17-0.46-2.17V70.2
		c0-1.61,0.01-4,0.04-7.16c0.03-3.16,0.04-5.55,0.04-7.16c0-0.3-0.02-0.95-0.06-1.97C175.46,52.89,175.44,52.08,175.44,51.47z"/>
	<path class="st1" d="M211.62,74.69V48.65l16.72-0.58c1.03,0,2,0.06,2.9,0.19c0.9,0.13,1.82,0.37,2.74,0.73
		c0.92,0.36,1.71,0.81,2.36,1.37c0.65,0.56,1.18,1.31,1.6,2.23c0.41,0.93,0.62,2,0.62,3.21c0,1.61-0.36,2.92-1.06,3.92
		c-0.71,1-1.77,1.89-3.19,2.66c1.66,0.46,2.93,1.27,3.8,2.41c0.87,1.14,1.31,2.58,1.31,4.32c0,1.29-0.25,2.45-0.74,3.47
		c-0.49,1.03-1.12,1.86-1.9,2.51c-0.77,0.65-1.68,1.18-2.73,1.61c-1.04,0.43-2.08,0.73-3.11,0.9s-2.07,0.26-3.14,0.26
		c-0.62,0-1.55-0.01-2.8-0.04c-1.25-0.03-2.18-0.04-2.82-0.04c-3.59,0-6.88,0.05-9.87,0.15C211.89,77.25,211.66,76.17,211.62,74.69z
		 M222.73,55.11c0,0.58,0.02,1.44,0.06,2.59c0.04,1.15,0.06,2.01,0.06,2.59c0,0.25,0.15,0.39,0.46,0.43
		c0.18-0.03,0.49-0.07,0.94-0.13c0.44-0.06,0.8-0.11,1.05-0.15c0.26-0.04,0.57-0.13,0.94-0.28c0.37-0.15,0.65-0.33,0.86-0.53
		c0.21-0.21,0.39-0.51,0.54-0.9c0.15-0.39,0.23-0.85,0.23-1.38c0-1.96-1.35-2.94-4.06-2.94c-0.54,0.09-0.86,0.18-0.95,0.27
		C222.77,54.79,222.73,54.93,222.73,55.11z M223.07,69.85c0,0.95,0.05,1.43,0.15,1.43h0.62c0.5,0,0.94-0.02,1.31-0.05
		c0.37-0.03,0.76-0.11,1.19-0.24c0.43-0.13,0.77-0.31,1.03-0.53c0.26-0.23,0.48-0.54,0.66-0.96c0.18-0.41,0.27-0.9,0.27-1.47
		c0-0.32-0.03-0.62-0.1-0.89c-0.06-0.27-0.17-0.5-0.31-0.7c-0.14-0.19-0.28-0.36-0.42-0.5c-0.14-0.14-0.33-0.26-0.58-0.36
		c-0.25-0.1-0.46-0.17-0.62-0.23c-0.16-0.06-0.4-0.11-0.73-0.15c-0.32-0.04-0.55-0.06-0.7-0.08c-0.14-0.01-0.39-0.03-0.74-0.05
		s-0.57-0.03-0.66-0.03v0.74c-0.01,0.14-0.08,0.62-0.2,1.43c-0.12,0.81-0.18,1.46-0.18,1.93V69.85z"/>
	<path class="st1" d="M239.29,77.32c0.8-2.95,1.68-5.95,2.65-9c0.97-3.04,2.17-6.68,3.61-10.92c1.44-4.24,2.42-7.17,2.95-8.79
		c0.15-0.26,0.26-0.41,0.31-0.46h3.25c0.76,0,1.88-0.01,3.37-0.04c1.48-0.03,2.61-0.04,3.37-0.04h3.25c0.19,0,0.35,0,0.48,0.01
		c0.13,0.01,0.28,0.02,0.46,0.05c0.18,0.03,0.33,0.06,0.44,0.12c0.11,0.05,0.2,0.13,0.28,0.23c0.08,0.1,0.12,0.23,0.12,0.37
		l8.92,28.27c0,0.26-0.09,0.44-0.28,0.53c-0.19,0.1-0.54,0.15-1.05,0.15h-1.78c-0.52,0-1.28,0.01-2.3,0.02
		c-1.02,0.01-1.79,0.02-2.3,0.02c-0.15,0-0.47,0.01-0.94,0.03c-0.47,0.02-0.87,0.03-1.19,0.02c-0.32-0.01-0.68-0.03-1.07-0.06
		c-0.39-0.03-0.71-0.1-0.95-0.21c-0.24-0.11-0.39-0.25-0.45-0.44v-1.28c-0.13-0.64-0.36-1.24-0.68-1.78
		c-0.32-0.54-0.66-0.81-1.03-0.81h-6.66l-1.01,4.1c-0.14,0.31-0.86,0.46-2.17,0.46h-1.55c-0.55,0-1.38,0.02-2.48,0.06
		c-1.1,0.04-1.92,0.06-2.48,0.06h-0.54c-0.21,0-0.53,0.01-0.98,0.02c-0.44,0.01-0.79,0.02-1.04,0.02
		C239.73,77.91,239.55,77.68,239.29,77.32z M252.71,65.57l0.54,0.91h1.28c1.03,0,1.98-0.06,2.83-0.18c0.86-0.12,1.29-0.32,1.29-0.59
		l-2.5-11.14c-0.23,0-0.55,0.44-0.94,1.32c-0.39,0.88-0.71,1.87-0.96,2.98L252.71,65.57z"/>
	<path class="st1" d="M269.43,54.14c0-0.23,0.01-0.58,0.04-1.04c0.03-0.46,0.04-0.77,0.04-0.94c0-0.06-0.01-0.3-0.04-0.7
		c-0.03-0.4-0.04-0.75-0.04-1.04c0-1.37,0.13-2.05,0.39-2.05c0.1,0,0.19,0.01,0.27,0.04c2.7,0,6.69-0.03,11.99-0.1
		c5.29-0.06,9.26-0.1,11.89-0.1c0.66,0,1.07,0.06,1.25,0.17c0.17,0.12,0.26,0.34,0.26,0.68v0.54c0,0.67,0.01,1.66,0.02,2.97
		c0.01,1.31,0.02,2.31,0.02,2.99c0,0.67-0.18,1.01-0.54,1.01c-0.72,0-1.8-0.01-3.23-0.04c-1.43-0.03-2.51-0.04-3.23-0.04v20.74
		c-0.09,0.39-0.31,0.59-0.66,0.62c-0.45,0-1.11-0.01-1.97-0.02c-0.86-0.01-1.52-0.02-1.97-0.02c-0.03,0-0.05,0.01-0.08,0.04
		c-0.57,0-1.36-0.01-2.39-0.02c-1.03-0.01-1.79-0.02-2.29-0.02h-1.16c-0.26,0.03-0.63,0.04-1.12,0.04l-0.77-0.93
		c0-1.96,0.06-4.88,0.19-8.74c0.13-3.87,0.19-6.78,0.19-8.74c0-0.09,0-0.24-0.01-0.44c-0.01-0.21-0.01-0.37-0.01-0.5
		c0-0.13-0.01-0.29-0.03-0.48c-0.02-0.19-0.05-0.35-0.1-0.47c-0.05-0.12-0.1-0.24-0.16-0.37c-0.06-0.12-0.15-0.21-0.26-0.27
		c-0.11-0.06-0.24-0.09-0.4-0.09h-5.53C269.61,56.71,269.43,55.82,269.43,54.14z"/>
	<path class="st1" d="M294.93,54.14c0-0.23,0.01-0.58,0.04-1.04c0.03-0.46,0.04-0.77,0.04-0.94c0-0.06-0.01-0.3-0.04-0.7
		c-0.03-0.4-0.04-0.75-0.04-1.04c0-1.37,0.13-2.05,0.39-2.05c0.1,0,0.19,0.01,0.27,0.04c2.7,0,6.69-0.03,11.99-0.1
		c5.29-0.06,9.26-0.1,11.89-0.1c0.66,0,1.07,0.06,1.25,0.17c0.17,0.12,0.26,0.34,0.26,0.68v0.54c0,0.67,0.01,1.66,0.02,2.97
		c0.01,1.31,0.02,2.31,0.02,2.99c0,0.67-0.18,1.01-0.54,1.01c-0.72,0-1.8-0.01-3.23-0.04c-1.43-0.03-2.51-0.04-3.23-0.04v20.74
		c-0.09,0.39-0.31,0.59-0.66,0.62c-0.45,0-1.11-0.01-1.97-0.02c-0.86-0.01-1.52-0.02-1.97-0.02c-0.03,0-0.05,0.01-0.08,0.04
		c-0.57,0-1.36-0.01-2.39-0.02c-1.03-0.01-1.79-0.02-2.29-0.02h-1.16c-0.26,0.03-0.63,0.04-1.12,0.04l-0.77-0.93
		c0-1.96,0.06-4.88,0.19-8.74c0.13-3.87,0.19-6.78,0.19-8.74c0-0.09,0-0.24-0.01-0.44c-0.01-0.21-0.01-0.37-0.01-0.5
		c0-0.13-0.01-0.29-0.03-0.48c-0.02-0.19-0.05-0.35-0.1-0.47c-0.05-0.12-0.1-0.24-0.16-0.37c-0.06-0.12-0.15-0.21-0.26-0.27
		c-0.11-0.06-0.24-0.09-0.4-0.09h-5.53C295.11,56.71,294.93,55.82,294.93,54.14z"/>
	<path class="st1" d="M322.71,51.47c0-2.1,0.22-3.28,0.66-3.52c0.13,0.03,0.31,0.04,0.54,0.04h0.62c0.4,0,1.06-0.01,1.97-0.04
		c0.92-0.03,1.61-0.04,2.09-0.04c1.83,0,3.31,0.07,4.44,0.22c1.13,0.15,1.76,0.42,1.91,0.82l-0.23,19.97h0.43
		c1.03-0.05,1.75-0.07,2.17-0.07c0.41,0.01,1.17,0.03,2.27,0.08c1.1,0.05,2.16,0.07,3.18,0.07c0.84,0,1.46,0.05,1.87,0.15
		c0.41,0.1,0.61,0.29,0.61,0.59v7.43c-0.17,0.46-3.04,0.7-8.63,0.7h-13.39c-0.31-0.45-0.46-1.17-0.46-2.17V70.2
		c0-1.61,0.01-4,0.04-7.16c0.03-3.16,0.04-5.55,0.04-7.16c0-0.3-0.02-0.95-0.06-1.97C322.73,52.89,322.71,52.08,322.71,51.47z"/>
	<path class="st1" d="M346.97,76.62v-0.74c0-2.21,0.03-5.46,0.08-9.77c0.05-4.31,0.08-7.56,0.08-9.77v-8.01h22.52v6.35
		c0,0.04,0,0.14,0,0.29s0,0.26,0,0.31c0,0.05-0.01,0.15-0.02,0.28c-0.01,0.14-0.04,0.23-0.07,0.28c-0.03,0.05-0.08,0.13-0.14,0.22
		s-0.13,0.16-0.2,0.2c-0.08,0.04-0.18,0.07-0.31,0.11c-0.13,0.03-0.27,0.05-0.43,0.05h-0.54c-3.34,0-6.38-0.05-9.13-0.15
		c-0.03,0.21-0.07,0.53-0.13,0.96c-0.06,0.43-0.1,0.81-0.14,1.14c-0.03,0.33-0.05,0.65-0.05,0.96h9.21c0.39,0,0.64,0.05,0.77,0.15
		c0.13,0.1,0.19,0.27,0.19,0.5c0,0.06-0.01,0.17-0.02,0.31c-0.01,0.14-0.02,0.25-0.02,0.31c0,0.62,0.02,1.54,0.06,2.75
		c0.04,1.21,0.06,2.13,0.06,2.75c-0.04,0.26-0.14,0.39-0.31,0.39c-0.08,0-0.14-0.03-0.19-0.08c-4.08,0.21-7.09,0.31-9.05,0.31h-0.5
		v2.79c1.15,0,2.81-0.05,4.98-0.15c2.17-0.1,3.8-0.15,4.89-0.15c0.85,0,1.34,0.18,1.47,0.54v1.47c0,0.62,0.01,1.54,0.04,2.75
		c0.03,1.21,0.04,2.13,0.04,2.75c0,0.64-0.26,0.97-0.77,0.97c-0.67,0-1.7-0.01-3.1-0.02c-1.39-0.01-2.45-0.02-3.17-0.02
		c-1.86,0-4.51,0.05-7.97,0.15c-3.46,0.1-5.96,0.15-7.51,0.16l-0.54-0.62C347,76.96,346.97,76.73,346.97,76.62z"/>
</g>
</svg>
